<svg xmlns="http://www.w3.org/2000/svg" viewBox="0 0 720 360"><rect width="720" height="360" rx="24" fill="#edf5f8"/><circle cx="610" cy="65" r="120" fill="#e1eee7"/><path d="M40 306H680" stroke="#c6d9df" stroke-width="4"/><rect x="63" y="58" width="260" height="203" rx="8" fill="white" stroke="#1266a8" stroke-width="6"/><path d="M192 58v203M63 159h260" stroke="#1266a8" stroke-width="5"/><path d="M193 63 266 90v188l-73-22z" fill="#d5e9f3" stroke="#1266a8" stroke-width="5"/><path d="M221 166v25" stroke="#1266a8" stroke-width="5"/><path d="M279 116h72q25 0 25-20t-25-20M282 147h125q30 0 30 24t-30 24M281 219h65" fill="none" stroke="#168348" stroke-width="5" stroke-linecap="round"/><rect x="362" y="258" width="290" height="18" rx="9" fill="#1266a8"/><path d="M387 276v32m240-32v32" stroke="#1266a8" stroke-width="9"/><path d="m392 247 51-38 58 18-21 28h-87z" fill="#a9d4b7" stroke="#168348" stroke-width="4"/><path d="M543 186h62v64h-62z" fill="white" stroke="#1266a8" stroke-width="4"/><path d="M561 186v-26h26v26m-14-26h36" fill="none" stroke="#1266a8" stroke-width="5"/><circle cx="574" cy="219" r="12" fill="#e1eee7"/><circle cx="565" cy="80" r="38" fill="white" stroke="#168348" stroke-width="5"/><path d="M565 56v26l19 11" fill="none" stroke="#168348" stroke-width="5" stroke-linecap="round"/></svg>
