<svg xmlns="http://www.w3.org/2000/svg" viewBox="0 0 720 360"><rect width="720" height="360" rx="24" fill="#edf5f8"/><circle cx="610" cy="65" r="120" fill="#e1eee7"/><path d="M40 306H680" stroke="#c6d9df" stroke-width="4"/><rect x="72" y="153" width="234" height="144" rx="16" fill="white" stroke="#1266a8" stroke-width="5"/><rect x="60" y="143" width="258" height="27" rx="10" fill="#1266a8"/><path d="M109 111V77h42v34M103 110h54v30h-54z" fill="#b5d6e9" stroke="#1266a8" stroke-width="4"/><rect x="189" y="97" width="67" height="43" rx="10" fill="#a9d4b7"/><path d="M188 98h70M203 98V78h35v20" fill="none" stroke="#168348" stroke-width="4"/><circle cx="189" cy="231" r="33" fill="#e1eee7"/><path d="m172 231 12 12 24-28" stroke="#168348" stroke-width="6" fill="none" stroke-linecap="round"/><rect x="356" y="97" width="142" height="199" rx="12" fill="white" stroke="#1266a8" stroke-width="5"/><rect x="389" y="84" width="77" height="26" rx="8" fill="#1266a8"/><path d="m375 149 8 8 14-18m-22 61 8 8 14-18m-22 61 8 8 14-18" stroke="#168348" stroke-width="4" fill="none"/><path d="M415 150h61m-61 52h61m-61 52h45" stroke="#c6d9df" stroke-width="6" stroke-linecap="round"/><rect x="543" y="196" width="116" height="100" rx="14" fill="#168348"/><path d="M568 196v-26q0-23 32-23t32 23v26" stroke="#1266a8" stroke-width="6" fill="none"/><rect x="592" y="215" width="16" height="61" rx="5" fill="#fff"/><path d="M569 246h62" stroke="#fff" stroke-width="16" stroke-linecap="round"/></svg>
